<svg xmlns="http://www.w3.org/2000/svg" viewBox="0 0 200 200" width="200" height="200">
  <rect width="200" height="200" fill="#1a2332" rx="12"/>
  <!-- Neues glänzendes Geschenk/Paket -->
  <rect x="55" y="55" width="90" height="80" rx="6" fill="#3498db"/>
  <rect x="55" y="55" width="90" height="80" rx="6" fill="url(#shineGrad)" opacity="0.3"/>
  <!-- Band horizontal -->
  <rect x="55" y="85" width="90" height="10" fill="#e74c3c"/>
  <!-- Band vertikal -->
  <rect x="93" y="55" width="14" height="80" fill="#e74c3c"/>
  <!-- Schleife -->
  <ellipse cx="88" cy="55" rx="14" ry="10" fill="#e74c3c"/>
  <ellipse cx="112" cy="55" rx="14" ry="10" fill="#e74c3c"/>
  <circle cx="100" cy="55" r="5" fill="#c0392b"/>
  <!-- Glanz-Sternchen -->
  <polygon points="155,40 157,46 163,46 158,50 160,56 155,52 150,56 152,50 147,46 153,46" fill="#f1c40f" opacity="0.8"/>
  <polygon points="45,45 46,48 49,48 47,50 48,53 45,51 42,53 43,50 41,48 44,48" fill="#f1c40f" opacity="0.6"/>
  <polygon points="160,90 161,93 164,93 162,95 163,98 160,96 157,98 158,95 156,93 159,93" fill="#f1c40f" opacity="0.5"/>
  <!-- NEW tag -->
  <rect x="120" y="42" width="32" height="16" rx="3" fill="#48bb78"/>
  <text x="136" y="54" text-anchor="middle" fill="white" font-size="10" font-weight="bold" font-family="sans-serif">NEW</text>
  <text x="100" y="178" text-anchor="middle" fill="#e8b341" font-size="14" font-weight="bold" font-family="sans-serif">новый</text>
</svg>