<svg xmlns="http://www.w3.org/2000/svg" viewBox="0 0 200 200" width="200" height="200">
  <rect width="200" height="200" fill="#1a2332" rx="12"/>
  <!-- Altes Buch -->
  <rect x="45" y="45" width="110" height="95" rx="5" fill="#6D4C41"/>
  <rect x="50" y="50" width="100" height="85" rx="3" fill="#8D6E63"/>
  <!-- Abgenutzte Ecken -->
  <circle cx="50" cy="50" r="5" fill="#5D4037"/>
  <circle cx="150" cy="50" r="5" fill="#5D4037"/>
  <circle cx="50" cy="135" r="5" fill="#5D4037"/>
  <circle cx="150" cy="135" r="5" fill="#5D4037"/>
  <!-- Buchrücken -->
  <rect x="45" y="45" width="15" height="95" fill="#5D4037"/>
  <line x1="60" y1="45" x2="60" y2="140" stroke="#4E342E" stroke-width="1"/>
  <!-- Alte Schrift -->
  <line x1="70" y1="68" x2="140" y2="68" stroke="#A1887F" stroke-width="2"/>
  <line x1="70" y1="78" x2="135" y2="78" stroke="#A1887F" stroke-width="2"/>
  <line x1="70" y1="88" x2="130" y2="88" stroke="#A1887F" stroke-width="2"/>
  <line x1="70" y1="98" x2="125" y2="98" stroke="#A1887F" stroke-width="2"/>
  <line x1="70" y1="108" x2="120" y2="108" stroke="#A1887F" stroke-width="2"/>
  <!-- Risse/Alter -->
  <path d="M 130,50 Q 135,65 128,80" stroke="#5D4037" stroke-width="1" fill="none" opacity="0.6"/>
  <path d="M 140,120 Q 145,128 138,135" stroke="#5D4037" stroke-width="1" fill="none" opacity="0.6"/>
  <!-- Staubwolken -->
  <circle cx="155" cy="55" r="4" fill="#a0aec0" opacity="0.2"/>
  <circle cx="160" cy="50" r="3" fill="#a0aec0" opacity="0.15"/>
  <circle cx="40" cy="130" r="3" fill="#a0aec0" opacity="0.15"/>
  <text x="100" y="178" text-anchor="middle" fill="#e8b341" font-size="14" font-weight="bold" font-family="sans-serif">старый</text>
</svg>