<svg xmlns="http://www.w3.org/2000/svg" viewBox="0 0 200 200" width="200" height="200">
  <rect width="200" height="200" fill="#1a2332" rx="12"/>
  <!-- Glühbirne -->
  <circle cx="100" cy="72" r="38" fill="#f1c40f" opacity="0.15"/>
  <circle cx="100" cy="72" r="30" fill="#f1c40f" opacity="0.25"/>
  <!-- Birne -->
  <circle cx="100" cy="68" r="28" fill="#f9e74c"/>
  <path d="M 82,88 Q 82,108 88,112 L 112,112 Q 118,108 118,88" fill="#f9e74c"/>
  <!-- Glanz -->
  <ellipse cx="90" cy="58" rx="8" ry="12" fill="white" opacity="0.3"/>
  <!-- Fassung -->
  <rect x="88" y="112" width="24" height="6" rx="2" fill="#95a5a6"/>
  <rect x="90" y="118" width="20" height="4" rx="1" fill="#7f8c8d"/>
  <rect x="88" y="122" width="24" height="4" rx="2" fill="#95a5a6"/>
  <!-- Kontakt -->
  <path d="M 94,126 Q 100,133 106,126" fill="#7f8c8d"/>
  <!-- Strahlen -->
  <line x1="100" y1="25" x2="100" y2="15" stroke="#f1c40f" stroke-width="3" stroke-linecap="round"/>
  <line x1="140" y1="35" x2="148" y2="28" stroke="#f1c40f" stroke-width="3" stroke-linecap="round"/>
  <line x1="60" y1="35" x2="52" y2="28" stroke="#f1c40f" stroke-width="3" stroke-linecap="round"/>
  <line x1="150" y1="68" x2="160" y2="68" stroke="#f1c40f" stroke-width="3" stroke-linecap="round"/>
  <line x1="50" y1="68" x2="40" y2="68" stroke="#f1c40f" stroke-width="3" stroke-linecap="round"/>
  <text x="100" y="178" text-anchor="middle" fill="#e8b341" font-size="14" font-weight="bold" font-family="sans-serif">светлый</text>
</svg>