<svg xmlns="http://www.w3.org/2000/svg" viewBox="0 0 200 200" width="200" height="200">
  <rect width="200" height="200" fill="#0a0e13" rx="12"/>
  <!-- Mond -->
  <circle cx="130" cy="55" r="25" fill="#f1c40f" opacity="0.8"/>
  <circle cx="140" cy="48" r="20" fill="#0a0e13"/>
  <!-- Sterne -->
  <circle cx="50" cy="35" r="2" fill="#f5f5f5" opacity="0.8"/>
  <circle cx="80" cy="25" r="1.5" fill="#f5f5f5" opacity="0.6"/>
  <circle cx="170" cy="30" r="1.8" fill="#f5f5f5" opacity="0.7"/>
  <circle cx="40" cy="70" r="1.2" fill="#f5f5f5" opacity="0.5"/>
  <circle cx="165" cy="80" r="1.5" fill="#f5f5f5" opacity="0.6"/>
  <circle cx="60" cy="55" r="1" fill="#f5f5f5" opacity="0.4"/>
  <circle cx="155" cy="55" r="1.3" fill="#f5f5f5" opacity="0.5"/>
  <circle cx="90" cy="45" r="1" fill="#f5f5f5" opacity="0.3"/>
  <circle cx="35" cy="95" r="1.5" fill="#f5f5f5" opacity="0.4"/>
  <circle cx="175" cy="105" r="1" fill="#f5f5f5" opacity="0.3"/>
  <!-- Dunkle Landschaft -->
  <path d="M 0,130 Q 50,110 100,125 Q 150,140 200,120 L 200,200 L 0,200 Z" fill="#111820"/>
  <path d="M 0,145 Q 60,135 120,145 Q 170,155 200,140 L 200,200 L 0,200 Z" fill="#0d1218"/>
  <!-- Augen in der Dunkelheit -->
  <ellipse cx="75" cy="115" rx="4" ry="2.5" fill="#f1c40f" opacity="0.6"/>
  <ellipse cx="90" cy="115" rx="4" ry="2.5" fill="#f1c40f" opacity="0.6"/>
  <text x="100" y="185" text-anchor="middle" fill="#e8b341" font-size="14" font-weight="bold" font-family="sans-serif">тёмный</text>
</svg>