<svg xmlns="http://www.w3.org/2000/svg" viewBox="0 0 200 200" width="200" height="200">
  <rect width="200" height="200" fill="#1a2332" rx="12"/>
  <!-- Großer Mensch -->
  <circle cx="70" cy="42" r="16" fill="#FDBCB4"/>
  <circle cx="65" cy="40" r="2.5" fill="#2c3e50"/>
  <circle cx="75" cy="40" r="2.5" fill="#2c3e50"/>
  <path d="M 65,48 Q 70,52 75,48" stroke="#c0392b" stroke-width="1.5" fill="none"/>
  <rect x="58" y="58" width="24" height="60" rx="4" fill="#3498db"/>
  <rect x="55" y="118" width="12" height="35" rx="3" fill="#2c3e50"/>
  <rect x="73" y="118" width="12" height="35" rx="3" fill="#2c3e50"/>
  <rect x="55" y="150" width="12" height="5" rx="2" fill="#7f8c8d"/>
  <rect x="73" y="150" width="12" height="5" rx="2" fill="#7f8c8d"/>
  <!-- Kleiner Mensch -->
  <circle cx="145" cy="100" r="12" fill="#FDBCB4"/>
  <circle cx="141" cy="98" r="2" fill="#2c3e50"/>
  <circle cx="149" cy="98" r="2" fill="#2c3e50"/>
  <path d="M 141,105 Q 145,108 149,105" stroke="#c0392b" stroke-width="1.3" fill="none"/>
  <rect x="136" y="112" width="18" height="28" rx="3" fill="#e74c3c"/>
  <rect x="134" y="140" width="9" height="15" rx="2" fill="#2c3e50"/>
  <rect x="147" y="140" width="9" height="15" rx="2" fill="#2c3e50"/>
  <!-- Maßstrich -->
  <line x1="110" y1="26" x2="110" y2="155" stroke="#a0aec0" stroke-width="1" stroke-dasharray="3,3" opacity="0.5"/>
  <!-- Pfeile -->
  <path d="M 108,30 L 110,26 L 112,30" stroke="#a0aec0" stroke-width="1" fill="none" opacity="0.5"/>
  <path d="M 108,151 L 110,155 L 112,151" stroke="#a0aec0" stroke-width="1" fill="none" opacity="0.5"/>
  <text x="100" y="178" text-anchor="middle" fill="#e8b341" font-size="14" font-weight="bold" font-family="sans-serif">высокий</text>
</svg>